name rise44.9368peak50.754fall52.0217.mot
datacolumns 19
datarows 14
range 8.97497200000000 8.99663500000000
endheader
time	ground_force1_vx	ground_force1_vy	ground_force1_vz	ground_force1_px	ground_force1_py	ground_force1_pz	ground_force2_vx	ground_force2_vy	ground_force2_vz	ground_force2_px	ground_force2_py	ground_force2_pz	ground_torque1_x	ground_torque1_y	ground_torque1_z	ground_torque2_x	ground_torque2_y	ground_torque2_z	
8.97497200000000	-7.42814600000000	44.06428400000000	-9.26971700000000	0.28542200000000	0.00000000000000	0.10803800000000	-51.97059900000000	791.97145399999999	-66.85051300000001	0.18264000000000	0.00000000000000	-0.11138000000000	0.00000000000000	-6.04341600000000	0.00000000000000	0.00000000000000	-35.37702700000000	0.00000000000000	
8.97664000000000	-8.08983500000000	51.87357100000000	-10.35203900000000	0.29378700000000	0.00000000000000	0.10908100000000	-52.42761000000000	788.76272600000004	-66.43169600000000	0.18152700000000	0.00000000000000	-0.11133800000000	0.00000000000000	-6.86716500000000	0.00000000000000	0.00000000000000	-35.20550300000000	0.00000000000000	
8.97830800000000	-8.59499400000000	59.84173700000000	-11.30996500000000	0.30142100000000	0.00000000000000	0.11000100000000	-52.87375400000000	785.37611000000004	-65.98058300000000	0.18042600000000	0.00000000000000	-0.11129200000000	0.00000000000000	-7.62985600000000	0.00000000000000	0.00000000000000	-35.02464800000000	0.00000000000000	
8.97996600000000	-8.92300800000000	67.87128600000000	-12.11898000000000	0.30844000000000	0.00000000000000	0.11082000000000	-53.30853000000000	781.80995499999995	-65.49701399999999	0.17933900000000	0.00000000000000	-0.11124200000000	0.00000000000000	-8.31255100000000	0.00000000000000	0.00000000000000	-34.83445900000000	0.00000000000000	
8.98163900000000	-9.06193900000000	75.88715200000000	-12.76341300000000	0.31493300000000	0.00000000000000	0.11155500000000	-53.73143000000000	778.06272700000000	-64.98089500000000	0.17826700000000	0.00000000000000	-0.11118800000000	0.00000000000000	-8.90192800000000	0.00000000000000	0.00000000000000	-34.63494300000000	0.00000000000000	
8.98330200000000	-9.00834900000000	83.83921300000000	-13.23645900000000	0.32097000000000	0.00000000000000	0.11221700000000	-54.14193700000000	774.13301400000000	-64.43219900000000	0.17721200000000	0.00000000000000	-0.11112800000000	0.00000000000000	-9.39054000000000	0.00000000000000	0.00000000000000	-34.42612000000000	0.00000000000000	
8.98496900000000	-8.76647200000000	91.70233300000000	-13.53948500000000	0.32661100000000	0.00000000000000	0.11281900000000	-54.53952800000000	770.01953000000003	-63.85096900000000	0.17617200000000	0.00000000000000	-0.11106500000000	0.00000000000000	-9.77656300000000	0.00000000000000	0.00000000000000	-34.20801900000000	0.00000000000000	
8.98663400000000	-8.34689700000000	99.47433800000000	-13.68077000000000	0.33190200000000	0.00000000000000	0.11336800000000	-54.92367100000000	765.72111800000005	-63.23731900000000	0.17515100000000	0.00000000000000	-0.11099600000000	0.00000000000000	-10.06311200000000	0.00000000000000	0.00000000000000	-33.98068200000000	0.00000000000000	
8.98830700000000	-7.76496000000000	107.17244500000000	-13.67390700000000	0.33688400000000	0.00000000000000	0.11387100000000	-55.29382600000000	761.23676300000000	-62.59143200000000	0.17414700000000	0.00000000000000	-0.11092300000000	0.00000000000000	-10.25726900000000	0.00000000000000	0.00000000000000	-33.74416200000000	0.00000000000000	
8.98997400000000	-7.03902900000000	114.82871299999999	-13.53604400000000	0.34158900000000	0.00000000000000	0.11433500000000	-55.64944600000000	756.56559100000004	-61.91356900000000	0.17316300000000	0.00000000000000	-0.11084500000000	0.00000000000000	-10.36895000000000	0.00000000000000	0.00000000000000	-33.49852200000000	0.00000000000000	
8.99163700000000	-6.18884400000000	122.48506800000000	-13.28613300000000	0.34604500000000	0.00000000000000	0.11476400000000	-55.98997600000000	751.70687699999996	-61.20406100000000	0.17220000000000	0.00000000000000	-0.11076100000000	0.00000000000000	-10.40972500000000	0.00000000000000	0.00000000000000	-33.24383600000000	0.00000000000000	
8.99330400000000	-5.23402400000000	130.18837099999999	-12.94334100000000	0.35027500000000	0.00000000000000	0.11516200000000	-56.31485600000000	746.66005600000005	-60.46331300000000	0.17125700000000	0.00000000000000	-0.11067300000000	0.00000000000000	-10.39171100000000	0.00000000000000	0.00000000000000	-32.98019000000000	0.00000000000000	
8.99497300000000	-4.19285700000000	137.98592800000000	-12.52571400000000	0.35429900000000	0.00000000000000	0.11553400000000	-56.62351500000000	741.42472599999996	-59.69180800000000	0.17033600000000	0.00000000000000	-0.11057900000000	0.00000000000000	-10.32659900000000	0.00000000000000	0.00000000000000	-32.70767700000000	0.00000000000000	
8.99663500000000	-3.08138700000000	145.92169899999999	-12.04915600000000	0.35813500000000	0.00000000000000	0.11588000000000	-56.91537800000000	736.00065800000004	-58.89009900000000	0.16943800000000	0.00000000000000	-0.11048000000000	0.00000000000000	-10.22488400000000	0.00000000000000	0.00000000000000	-32.42640200000000	0.00000000000000	
